<svg width="267" height="34" viewBox="0 0 267 34" fill="none" xmlns="http://www.w3.org/2000/svg">
<path d="M1.20674 0L0 4.7062H11.1918L7.09097 21.1299L4.06877 33.2423H11.3947L14.4169 21.1299L18.5284 4.7062H29.688L30.8521 0H1.20674ZM224.978 0.362839C224.38 2.80664 223.835 4.71688 223.291 6.36032H220.557L221.443 5.79471C222.97 4.80225 223.718 4.30068 223.739 4.22599C222.928 2.39046 222.234 1.12053 221.603 0.480226C221.582 0.362839 220.418 1.07784 218.176 2.52918L217.407 3.00942C217.428 3.04143 217.514 3.18015 217.684 3.41494C218.475 4.43942 219.137 5.41055 219.66 6.34966H217.407L216.681 9.73258H221.753L221.39 10.4156L221.027 11.0986H215.548L214.865 14.4815H218.645C217.033 16.4557 215.111 18.0351 212.889 19.2304L216.435 2.32643H206.653L202.99 19.796C202.894 20.2549 202.776 20.6924 202.669 21.1193C201.815 24.5021 200.544 27.533 198.846 30.2116C199.882 31.1294 200.726 32.1004 201.42 33.1463C203.47 30.2222 205.083 26.4765 206.29 21.877H208.425L207.219 27.5971C207.123 28.3761 206.332 28.7282 204.88 28.6C205.179 29.998 205.307 31.396 205.2 32.8689C208.692 32.8475 210.444 32.0577 210.519 30.4569L212.494 21.1193L212.612 20.479C212.825 20.6817 213.017 20.9058 213.221 21.1193C213.69 21.6742 214.053 22.2184 214.31 22.7734C214.844 22.5066 215.474 22.1011 216.2 21.4821L214.908 25.6653H226.623L226.42 26.754C225.961 29.0162 225.299 30.1154 224.487 29.9767L225.128 26.754H212.558L211.832 30.0943H222.063C222.65 31.3533 222.896 32.6447 222.789 34C226.057 33.8932 228.054 33.3916 228.833 32.4738C229.079 32.2072 229.335 31.7375 229.602 30.9479C230.136 29.3577 230.756 27.0206 231.535 23.9472L231.973 22.1758H227.627L227.872 21.1299L228.193 19.5185C228.961 20.1908 229.656 20.7244 230.243 21.1299C230.681 21.4287 231.076 21.6635 231.407 21.8129C231.589 21.5782 231.781 21.354 231.973 21.1299C233.094 19.7746 234.162 18.6328 235.155 17.7043C232.528 16.9573 230.606 15.8901 229.399 14.4815H235.155L235.839 11.0986H225.491C225.768 10.693 226.025 10.2555 226.217 9.73258H234.76L235.444 6.34966H232.379C233.714 5.0477 234.888 3.96987 235.967 3.1268L232.379 0.928437C231.226 2.39046 229.987 3.82047 228.63 5.19712L230.809 6.5204H227.712L228.15 5.11173L228.716 3.70309C229.186 2.51853 229.57 1.61143 229.848 1.04582C229.869 0.811049 229.72 0.693659 229.239 0.640303C228.342 0.501569 226.922 0.405525 224.978 0.362839ZM246.636 0.640303C245.546 1.00314 243.848 1.66478 241.478 2.65725C242.225 4.78092 242.759 6.89391 243.133 9.01758C243.966 8.69742 245.781 8.07846 248.525 7.086C247.383 2.96672 246.732 0.811049 246.636 0.640303ZM250.629 2.4545L249.786 6.36032H253.01L251.483 13.6491H247.458L246.614 17.5549H250.684L249.914 21.1406L247.458 32.7726H251.965L254.379 21.1406L255.146 17.5549H258.372L257.73 20.4896C257.688 20.7031 257.645 20.9165 257.615 21.1299C256.793 25.4412 257.209 28.8242 258.863 31.2359C259.866 32.6661 261.084 33.2637 262.525 33.0503C264.022 33.125 265.526 30.7132 267 25.8041C265.784 25.2492 264.566 24.7157 263.338 24.1927C262.611 26.4444 262.152 27.1701 261.971 26.3697C261.683 25.2278 261.746 23.4777 262.132 21.1406C262.26 20.3829 262.42 19.5719 262.611 18.6861L266.04 2.46515L250.629 2.4545ZM183.735 2.86002L182.208 9.06027H176.324L175.192 13.6491H196.7L183.735 2.86002ZM209.664 5.79471H211.8L210.796 10.5863H208.703L209.664 5.79471ZM257.474 6.36032H260.861L259.332 13.6491H255.948L257.474 6.36032ZM39.2672 7.68362C34.8035 7.68362 30.9268 8.84682 27.627 11.1839C24.3485 13.553 22.2234 16.6585 21.2622 20.4896C21.2088 20.7137 21.1448 20.9165 21.1021 21.1299C20.3652 24.6835 21.0166 27.5757 23.0778 29.7847C25.2669 32.1004 28.6523 33.2423 33.223 33.2423C41.0187 33.2423 46.9884 28.4935 47.5971 27.9705L44.2117 27.2021C43.4108 27.3835 39.0857 28.6428 34.7501 28.248C29.2822 27.7572 28.0436 23.7552 28.3424 21.7702H50.2988L50.5019 21.1299L50.662 20.447C51.6552 16.4557 51.1318 13.3183 49.0921 11.0665C47.0418 8.79347 43.7846 7.68362 39.2672 7.68362ZM104.314 7.68362C99.6153 7.68362 95.3544 8.90019 91.5098 11.3867C87.6547 13.8732 85.2839 16.9466 84.3762 20.5643C84.3228 20.7671 84.2586 20.9378 84.216 21.1299C83.5432 24.481 84.4401 27.3194 86.8752 29.6246C89.4593 32.0471 93.1224 33.2423 97.8746 33.2423C100.747 33.2423 103.769 32.6447 106.941 31.4709L108.789 24.1073C106.685 25.7294 104.912 26.8073 103.513 27.3621C102.072 27.9384 100.502 28.248 98.8036 28.248C96.134 28.248 94.1156 27.533 92.7592 26.0709C91.5524 24.7584 91.1253 23.0935 91.4672 21.1193C91.5098 20.9058 91.574 20.7031 91.6274 20.479C92.1826 18.2593 93.5175 16.3917 95.6535 14.9297C97.7784 13.457 100.192 12.7206 102.862 12.7206C104.56 12.7206 105.938 13.0088 107.048 13.6064C108.18 14.1827 109.376 15.2712 110.594 16.8292L112.441 9.3804C110.049 8.23854 107.336 7.68362 104.314 7.68362ZM130.852 7.68362C126.377 7.68362 122.501 8.84682 119.212 11.1839C115.933 13.553 113.808 16.6585 112.847 20.479C112.793 20.7031 112.729 20.9058 112.687 21.1193C111.95 24.673 112.601 27.5649 114.662 29.7741C116.852 32.0899 120.237 33.2315 124.807 33.2315C132.603 33.2315 138.584 28.4827 139.182 27.9597L135.796 27.1915C134.995 27.3729 130.67 28.6322 126.335 28.2372C120.867 27.7464 119.617 23.7445 119.927 21.7596H141.873L142.076 21.1193L142.236 20.4363C143.24 16.4451 142.738 13.3076 140.709 11.0559C138.658 8.79346 135.369 7.68362 130.852 7.68362ZM73.7397 8.36661C70.6321 8.36661 67.5992 9.32705 64.641 11.2693L58.0734 9.06027L55.0511 21.1299L52.0289 33.2423H59.1626L62.0674 21.5675C62.11 21.4181 62.1528 21.258 62.1849 21.1193C62.9217 18.334 63.9148 16.349 65.1216 15.2071C66.4138 13.9799 68.2078 13.393 70.5574 13.393C72.7144 13.393 74.1242 13.8305 74.7008 14.759C75.3096 15.666 75.2989 17.3201 74.7008 19.7106L74.3804 21.1193L71.3154 33.2315H78.4493L81.4714 21.1299L82.155 18.398C83.0093 14.983 82.7741 12.5499 81.4288 11.0345C79.8801 9.25234 77.3173 8.36661 73.7397 8.36661ZM164.726 8.36661C161.619 8.36661 158.586 9.32705 155.628 11.2693L149.06 9.06027L146.038 21.1299L143.015 33.2423H150.149L153.054 21.5675C153.097 21.4181 153.139 21.258 153.171 21.1193C153.919 18.334 154.901 16.349 156.108 15.2071C157.4 13.9799 159.194 13.393 161.544 13.393C163.701 13.393 165.1 13.8305 165.687 14.759C166.296 15.666 166.285 17.3201 165.687 19.7106L165.324 21.1193L162.302 33.2315H169.436L172.458 21.1193L173.142 18.3873C173.996 14.9724 173.761 12.5392 172.415 11.0238C170.867 9.25234 168.293 8.36661 164.726 8.36661ZM237.099 10.9065L236.255 14.855H240.239L238.914 21.1299L238.071 25.3133C237.889 26.1883 237.185 27.1061 235.978 28.0879C235.625 28.3761 235.401 28.5681 235.369 28.6536C235.807 30.0407 236.597 31.396 237.708 32.6339C237.793 32.6553 238.263 32.2391 239.075 31.4282C240.281 30.1476 243.357 27.3194 248.333 22.9335C248.312 22.8801 248.045 22.2932 247.533 21.2046L247.49 21.1193L246.764 19.5078L245.963 20.1908C245.578 20.5323 245.205 20.8418 244.873 21.1193C244.009 21.877 243.346 22.4212 242.898 22.7734L243.261 21.1193L245.397 10.8958L237.099 10.9065ZM38.1354 12.7206C41.9158 12.7206 43.9342 14.204 44.1796 17.1921H29.9658C30.3716 16.4984 30.8308 15.8901 31.4182 15.3459C31.9947 14.8016 32.6462 14.3214 33.3511 13.9372C34.0773 13.5424 34.8461 13.2542 35.647 13.0515C36.4587 12.8274 37.3024 12.7206 38.1354 12.7206ZM129.72 12.7206C133.5 12.7206 135.519 14.204 135.764 17.1921H121.55C121.956 16.4984 122.426 15.8901 123.003 15.3459C123.579 14.8016 124.231 14.3214 124.936 13.9372C125.672 13.5424 126.431 13.2542 127.232 13.0515C128.043 12.8274 128.876 12.7206 129.72 12.7206ZM207.977 13.9265H210.07L209.141 18.398H207.048L207.977 13.9265ZM223.398 14.4921H224.647C224.818 14.983 225.053 15.4633 225.33 15.9008H222.266L222.832 15.1751L223.398 14.4921ZM180.788 14.6949L179.175 21.1299L176.11 33.2423H183.201L186.266 21.1299L187.879 14.6949H180.788ZM219.051 19.081H224.081L223.675 21.1299L223.398 22.2932H219.938C220.066 21.8663 220.183 21.4714 220.301 21.1299C220.44 20.7244 220.546 20.3829 220.664 20.0841C220.493 19.9881 220.397 19.924 220.301 19.924H218.208L219.051 19.081Z" fill="black"/>
</svg>
