<svg width="124" height="50" viewBox="0 0 124 50" fill="none" xmlns="http://www.w3.org/2000/svg">
<path fill-rule="evenodd" clip-rule="evenodd" d="M38.4437 0.204918C38.2486 0.398462 38.237 0.546415 38.237 2.86885C38.237 5.1913 38.2486 5.33925 38.4437 5.53277C38.6482 5.73545 38.7882 5.7377 51.3101 5.7377C63.8317 5.7377 63.972 5.73545 64.1762 5.53277C64.3714 5.33925 64.383 5.1913 64.383 2.86885C64.383 0.546415 64.3714 0.398462 64.1762 0.204918C63.972 0.00225408 63.8317 0 51.3101 0C38.7882 0 38.6482 0.00225408 38.4437 0.204918ZM67.3183 0.215676C67.1365 0.415063 67.1217 0.615677 67.1217 2.86885C67.1217 5.12203 67.1365 5.32265 67.3183 5.52203L67.5153 5.7377H81.538H95.5605L95.7575 5.52222C95.937 5.32573 95.9569 5.09858 95.9854 2.92992C96.0152 0.638217 96.0086 0.543032 95.797 0.276435L95.5777 0H81.5463H67.5153L67.3183 0.215676ZM107.762 0.896518C107.479 1.2123 105.41 4.85553 105.41 5.03813C105.41 5.13482 105.523 5.34335 105.66 5.50143L105.909 5.78893H108.924H111.939L112.137 5.54703C112.245 5.41403 112.334 5.1753 112.334 5.0166C112.334 4.70962 110.286 1.07633 109.983 0.845288C109.876 0.764345 109.467 0.717212 108.869 0.717212C108.098 0.717212 107.893 0.75041 107.762 0.896518ZM0.226219 1.13104C0.00165346 1.33842 0 1.36629 0 5.01587V8.6918L6.74316 15.2258C10.4519 18.8196 13.9793 22.2353 14.5819 22.8164L15.6773 23.8729H16.6334H17.5896L19.7265 21.7982C20.9018 20.6571 24.4053 17.2628 27.5119 14.2554C30.6185 11.248 33.1865 8.71998 33.2185 8.6374C33.2505 8.55492 33.2765 6.88075 33.2765 4.9171V1.34683L33.0042 1.13453C32.7783 0.958095 32.5856 0.92213 31.8682 0.92213H31.0043L30.087 1.76742C29.5827 2.23238 26.3722 5.26382 22.9525 8.5041C19.5328 11.7444 16.6975 14.4083 16.6518 14.4241C16.6061 14.4397 14.294 12.2989 11.5139 9.6665C8.73367 7.03422 5.51822 3.98985 4.36843 2.90132L2.278 0.92213H1.36517C0.589369 0.92213 0.418438 0.953483 0.226219 1.13104ZM38.4437 10.2459C38.241 10.447 38.237 10.5874 38.237 17.919C38.237 25.1195 38.2443 25.3958 38.4347 25.629L38.6321 25.871H51.3101H63.9878L64.1853 25.629C64.3676 25.406 64.383 25.1968 64.383 22.9395C64.383 20.6284 64.3714 20.4803 64.1762 20.2869C63.973 20.0854 63.8317 20.082 55.4909 20.082H47.0118L46.7581 19.8304C46.5108 19.5852 46.5045 19.5399 46.5045 18C46.5045 16.5578 46.5231 16.3978 46.7188 16.1511L46.9329 15.8811H55.4041H63.8756L64.1293 15.6296L64.383 15.3782V12.9324C64.383 10.5083 64.3807 10.4845 64.1437 10.2637L63.9046 10.041H51.2776C38.7882 10.041 38.6482 10.0433 38.4437 10.2459ZM77.6288 10.2781L77.4041 10.5153V17.9512C77.4041 25.12 77.4112 25.3958 77.6018 25.629L77.7993 25.871H81.5181C85.0297 25.871 85.2488 25.86 85.454 25.6758C85.6716 25.4807 85.6716 25.4753 85.6716 17.9657C85.6716 10.5874 85.6679 10.4471 85.4649 10.2459C85.2659 10.0486 85.1204 10.041 81.5559 10.041H77.8537L77.6288 10.2781ZM102.391 10.169C102.239 10.288 94.2601 23.926 93.8748 24.727C93.7301 25.0278 93.7223 25.138 93.8272 25.3892C93.8965 25.555 94.0685 25.7428 94.2095 25.8063C94.3855 25.8857 95.6914 25.9223 98.3819 25.9223C102.297 25.9223 102.298 25.922 102.559 25.6915C102.703 25.5647 104.171 23.1327 105.823 20.2869C107.473 17.4411 108.858 15.1033 108.9 15.0918C108.942 15.0803 110.361 17.4601 112.055 20.38C114.327 24.2956 115.203 25.7197 115.393 25.8057C115.571 25.886 116.861 25.9223 119.559 25.9223C123.357 25.9223 123.475 25.916 123.74 25.7098C124.299 25.2738 124.336 25.3503 119.861 17.6476C117.578 13.7175 115.617 10.3983 115.503 10.2715L115.295 10.041H108.926C103.987 10.041 102.519 10.0698 102.391 10.169ZM0.229732 15.8358L0 15.9952V20.7463V25.4975L0.27696 25.7135C0.54865 25.9253 0.625125 25.929 4.21331 25.9002L7.8726 25.871L8.06999 25.629C8.24866 25.4103 8.26788 25.2003 8.27161 23.4261L8.27575 21.4652L5.30275 18.5707L2.32977 15.6762H1.39452C0.715344 15.6762 0.396528 15.7199 0.229732 15.8358ZM28.1834 18.3018C26.6932 19.7458 25.3696 21.0393 25.2415 21.1763C25.0168 21.4171 25.0091 21.4924 25.0091 23.453C25.0091 25.384 25.0194 25.4897 25.2266 25.6758C25.4321 25.86 25.651 25.871 29.1628 25.871H32.8814L33.0791 25.629C33.2672 25.3988 33.2765 25.1628 33.2765 20.7366C33.2765 15.1922 33.4104 15.6762 31.8778 15.6762H30.8926L28.1834 18.3018ZM0.27231 32.8968L0 33.109V41.385C0 49.2725 0.00888754 49.6687 0.189015 49.8305C0.364388 49.9877 4.80071 50 61.9368 50C123.358 50 123.496 49.9995 123.702 49.795C123.905 49.5935 123.909 49.4535 123.909 41.3498V33.109L123.637 32.8968L123.364 32.6845H61.9544H0.544621L0.27231 32.8968ZM57.6125 36.2207C58.5241 36.4123 59.629 36.774 59.629 36.881C59.629 36.926 59.567 37.1182 59.4908 37.3083C59.4147 37.4982 59.2697 37.8773 59.1686 38.1502C58.9585 38.7165 59.0372 38.7072 57.6234 38.3317C55.9682 37.8923 54.7657 38.1792 54.7752 39.0112C54.7816 39.5462 55.0529 39.728 56.8313 40.3893C58.3057 40.9375 59.0587 41.35 59.4835 41.842C59.9417 42.3727 60.0754 42.8875 60.0216 43.913C59.9551 45.1793 59.4661 45.8522 58.2341 46.3747C57.6925 46.6045 55.6313 46.691 54.7432 46.5218C53.9078 46.3625 52.4161 45.9155 52.3462 45.8038C52.3165 45.756 52.4385 45.3183 52.6175 44.8307C52.876 44.1273 52.9771 43.958 53.1082 44.009C53.6128 44.2043 55.1903 44.5677 55.7872 44.6263C56.9839 44.743 57.7689 44.3805 57.7689 43.7108C57.7689 43.1805 57.351 42.8818 55.7284 42.2528C53.1072 41.2365 52.4985 40.6305 52.4985 39.037C52.4985 37.5143 53.2522 36.638 54.927 36.2138C55.6316 36.0355 56.7436 36.0382 57.6125 36.2207ZM96.3657 36.2205C96.7621 36.304 97.3065 36.4443 97.5748 36.5327L98.0627 36.6935L97.7515 37.5322C97.5803 37.9935 97.4003 38.411 97.3513 38.4603C97.3009 38.5107 97.0462 38.4743 96.7633 38.3763C96.0807 38.139 94.7977 38.0545 94.3088 38.2145C93.8174 38.3755 93.2586 38.8592 93.0127 39.337C92.5525 40.2318 92.4807 41.995 92.8609 43.0713C93.101 43.751 93.7591 44.413 94.3524 44.5713C94.8441 44.7025 95.9937 44.6473 96.4648 44.4698C96.7184 44.374 96.7295 44.3358 96.7295 43.5477V42.7255H95.851C94.83 42.7255 94.8628 42.783 95.2113 41.5982L95.4377 40.83L97.1705 40.8018L98.9031 40.7738L98.8756 43.3077L98.8479 45.842L97.7629 46.196C96.7351 46.5315 96.5984 46.5505 95.1793 46.5585C93.838 46.566 93.6182 46.542 93.0828 46.328C92.312 46.02 91.383 45.1693 90.9614 44.3853C90.5143 43.5533 90.3252 42.6642 90.3252 41.3935C90.3252 39.235 90.9763 37.759 92.3382 36.829C93.362 36.13 94.8578 35.904 96.3657 36.2205ZM103.14 36.296C104.353 36.9038 104.41 38.4375 103.248 39.2137C102.769 39.534 101.958 39.5348 101.473 39.2152C101.065 38.947 100.656 38.2135 100.656 37.7505C100.656 37.2215 101.074 36.568 101.582 36.3015C102.148 36.0047 102.555 36.0035 103.14 36.296ZM13.2472 36.473C14.5552 36.8735 15.2907 37.8675 15.3773 39.3525C15.4604 40.775 15.0196 41.785 14.024 42.4533C13.2923 42.9443 12.5704 43.1325 11.1352 43.2065L9.92097 43.269V44.8927V46.5165H8.7842H7.64742V41.3935V36.2705H10.1168C12.2841 36.2705 12.667 36.2952 13.2472 36.473ZM20.0693 39.6772C20.1008 42.7043 20.1259 43.1325 20.2941 43.5183C20.9128 44.937 22.7651 45.056 23.4834 43.7227C23.7112 43.3002 23.7181 43.198 23.7493 39.7797L23.7814 36.2705H24.912H26.0426V39.6465C26.0426 43.0952 25.9919 43.6792 25.619 44.542C25.3494 45.1652 24.5658 45.953 23.8854 46.2845C23.3408 46.5495 23.2186 46.5675 21.9605 46.5675C20.7249 46.5675 20.5704 46.546 20.0362 46.2978C18.8492 45.7458 18.1 44.7173 17.882 43.3402C17.8241 42.9737 17.7763 41.2335 17.7759 39.4723L17.7751 36.2705H18.9044H20.0337L20.0693 39.6772ZM34.5683 36.5068C35.2837 36.8235 35.7199 37.185 35.9887 37.6835C36.3354 38.3272 36.4131 38.8315 36.2701 39.5147C36.1461 40.1073 35.6334 40.8085 35.232 40.935C34.9181 41.0338 34.9993 41.2695 35.4209 41.4837C36.259 41.91 36.6332 42.579 36.6305 43.6475C36.6274 44.9475 36.0737 45.741 34.8268 46.2323C34.3015 46.4393 34.0438 46.459 31.4423 46.495L28.6262 46.5335V41.3945V36.2558L31.3906 36.2897C33.7723 36.319 34.2123 36.349 34.5683 36.5068ZM41.0273 40.418V44.5658L43.2751 44.5932L45.5228 44.621V45.543V46.4652L42.1384 46.4923L38.7539 46.5192V41.395V36.2705H39.8906H41.0273V40.418ZM49.8899 41.3678L49.8632 46.4652L48.7522 46.4943L47.6412 46.5233V41.397V36.2705H48.7789H49.9169L49.8899 41.3678ZM64.8996 38.2685V40.2665H66.8632H68.8267V38.2685V36.2705H69.9635H71.1002V41.3935V46.5165H69.9635H68.8267V44.3647V42.213H66.8632H64.8996V44.3647V46.5165H63.7629H62.6262V41.3935V36.2705H63.7629H64.8996V38.2685ZM76.2674 41.3935V46.5165H75.1307H73.994V41.3935V36.2705H75.1307H76.2674V41.3935ZM83.7981 39.8053C84.7634 41.7495 85.5922 43.3402 85.6399 43.3402C85.6875 43.3402 85.709 41.7495 85.6873 39.8053L85.6482 36.2705H86.7968H87.9451V41.3963V46.522L86.4952 46.4935L85.0453 46.4652L83.3041 42.9345C82.3467 40.9925 81.5209 39.3898 81.4697 39.373C81.4145 39.3547 81.393 40.8142 81.4177 42.9292L81.4594 46.5165H80.3103H79.1609V41.3935V36.2705H80.602H82.0431L83.7981 39.8053ZM9.92097 39.7028V41.1885H10.9302C12.0462 41.1885 12.4779 41.0415 12.863 40.5302C13.1605 40.135 13.1568 39.164 12.8563 38.7625C12.5105 38.301 12.24 38.2205 11.0319 38.2188L9.92097 38.2172V39.7028ZM30.8997 39.2335V40.2665L31.8556 40.2658C33.4465 40.2648 34 40.002 34 39.2475C34 38.9683 33.923 38.7545 33.7508 38.556C33.506 38.2733 33.4798 38.2677 32.2006 38.2345L30.8997 38.2005V39.2335ZM30.8997 43.3915V44.5697H32.0114C33.7839 44.5697 34.3101 44.3127 34.3101 43.4475C34.3101 42.479 33.832 42.213 32.0914 42.213H30.8997V43.3915Z" fill="black"/>
</svg>
