<svg width="240" height="39" viewBox="0 0 240 39" fill="none" xmlns="http://www.w3.org/2000/svg">
<path d="M71.6112 38.9062C71.5854 37.9943 71.5726 37.07 71.5211 36.1581C71.4313 34.5147 70.7637 33.6801 69.1586 33.2434C68.17 32.9739 67.1683 32.7942 66.1797 32.5372C60.5041 31.0862 56.6904 27.5039 54.7387 22.0723C51.9011 14.1626 55.8175 5.59799 63.3932 2.09255C65.9869 0.898374 68.7091 0.384758 71.5598 0.564523C79.2384 1.02678 85.1193 6.12443 86.9299 12.6987C87.8799 16.1785 87.4562 19.5299 86.1594 22.8299C86.1338 22.8812 86.0951 22.9326 86.0309 23.0353C85.7485 23.061 85.4275 23.1124 85.1193 23.1124C81.8321 23.1124 78.5322 23.1124 75.245 23.1124C75.0394 23.1124 74.8341 23.0867 74.4873 23.061C74.7955 22.7785 75.0011 22.5987 75.1936 22.4061C76.4776 21.1221 77.4278 19.6454 77.6974 17.8349C78.0442 15.4594 77.3124 13.3793 75.6044 11.7229C73.4858 9.66839 70.9178 9.1291 68.1441 10.105C65.3963 11.068 63.7142 13.084 63.3418 15.9602C62.9309 19.0419 64.1637 21.5201 67.1299 23.0738C68.3497 23.7158 69.6721 24.0497 71.0076 24.3322C72.7924 24.7175 74.5259 25.231 76.1054 26.1556C78.866 27.7607 80.471 30.1746 80.9976 33.2949C81.1645 34.2835 81.2029 35.2852 81.2544 36.2866C81.2928 37.1598 81.2799 38.033 81.2799 38.9062C78.0314 38.9062 74.8213 38.9062 71.6112 38.9062Z" fill="black"/>
<path d="M0 1.65613C0.282494 1.66897 0.552128 1.68181 0.834637 1.68181C9.34784 1.68181 17.8611 1.68181 26.3742 1.68181C26.6312 1.68181 26.8879 1.68181 27.1191 1.68181C27.286 2.16974 27.3244 9.70709 27.1703 10.5674C24.2172 10.5674 21.2509 10.5674 18.2206 10.5674C18.2206 16.5639 18.2206 22.4962 18.2206 28.4799C15.1646 28.4799 12.1856 28.4799 9.14241 28.4799C9.14241 22.5347 9.14241 16.6153 9.14241 10.6573C8.9498 10.6316 8.80855 10.5931 8.66729 10.5931C5.86807 10.5931 3.06886 10.5931 0.256818 10.5931C0.166915 10.5931 0.0898829 10.6059 0 10.6188C0 7.63977 0 4.64795 0 1.65613Z" fill="black"/>
<path d="M89.0101 1.65589C91.8349 1.65589 94.6083 1.65589 97.4203 1.65589C100.618 5.90608 103.802 10.1691 106.999 14.4321C107.051 14.4193 107.102 14.4065 107.154 14.3936C107.205 13.7131 107.166 13.0325 107.179 12.352C107.192 11.6458 107.179 10.9395 107.179 10.2461C107.179 9.52709 107.179 8.79517 107.179 8.07612C107.179 7.3699 107.179 6.66368 107.179 5.97028C107.179 5.27691 107.179 4.55783 107.179 3.86446C107.179 3.15821 107.179 2.46484 107.179 1.77145C107.693 1.60453 114.768 1.57885 115.5 1.73293C115.5 10.6571 115.5 19.6068 115.5 28.5823C112.906 28.5823 110.338 28.5823 107.706 28.5823C104.213 23.9726 100.682 19.3243 97.1764 14.7018C97.0993 14.7146 97.0737 14.7018 97.0609 14.7146C97.0481 14.7275 97.0353 14.7531 97.0353 14.766C97.0353 19.35 97.0353 23.9341 97.0353 28.5695C94.3515 28.5695 91.7064 28.5695 89.0229 28.5695C89.0101 19.6197 89.0101 10.6827 89.0101 1.65589Z" fill="black"/>
<path d="M174.72 1.66889C174.925 1.65605 175.067 1.63037 175.221 1.63037C179.342 1.64321 183.477 1.60469 187.599 1.69457C190.334 1.75878 192.966 2.43933 195.393 3.76189C199.053 5.76501 201.3 8.79533 201.877 12.9556C202.263 15.6907 201.993 18.3615 200.76 20.8782C199.284 23.8957 196.883 25.9117 193.839 27.2214C191.926 28.0431 189.91 28.5182 187.83 28.6467C186.764 28.711 185.698 28.7494 184.633 28.7622C181.577 28.775 178.521 28.7622 175.465 28.7622C175.234 28.7622 175.002 28.7622 174.746 28.7622C174.72 19.7226 174.72 10.7342 174.72 1.66889ZM183.002 21.777C184.697 21.7514 186.328 21.9054 187.933 21.6229C189.525 21.3533 190.989 20.7626 192.067 19.5043C193.583 17.7323 193.839 15.665 193.351 13.4821C192.799 11.0039 191.091 9.59146 188.716 8.94944C186.893 8.4615 185.031 8.56422 183.169 8.61558C183.118 8.61558 183.066 8.67978 183.002 8.70545C183.002 13.0327 183.002 17.3599 183.002 21.777Z" fill="black"/>
<path d="M167.684 19.0549C169.327 22.2778 170.945 25.4366 172.589 28.6595C169.494 28.6595 166.489 28.6595 163.42 28.6595C162.239 26.0144 161.058 23.3564 159.851 20.6599C158.682 20.6599 157.514 20.6599 156.281 20.6599C156.281 23.3179 156.281 25.9501 156.281 28.5569C155.742 28.711 149.039 28.7366 148.32 28.6081C148.32 19.6584 148.32 10.6829 148.32 1.69457C148.474 1.66889 148.616 1.63037 148.757 1.63037C153.546 1.64321 158.336 1.63037 163.125 1.70741C164.833 1.73309 166.515 2.15684 168.056 2.95294C170.855 4.39106 172.447 6.63814 172.756 9.78406C172.884 11.0296 172.82 12.2623 172.55 13.4693C172.062 15.6521 170.791 17.27 168.878 18.4C168.505 18.6183 168.12 18.8109 167.684 19.0549ZM156.307 7.93503C156.307 9.92529 156.307 11.8642 156.307 13.8031C156.435 13.816 156.525 13.8416 156.602 13.8416C158.233 13.8416 159.851 13.8673 161.482 13.8288C161.969 13.816 162.457 13.7004 162.92 13.5463C164.229 13.0969 164.859 12.1082 164.82 10.6829C164.781 9.41168 164.088 8.5257 162.791 8.12763C162.445 8.02491 162.085 7.9222 161.725 7.9222C160.018 7.8965 158.31 7.8965 156.589 7.88368C156.499 7.88368 156.41 7.9222 156.307 7.93503Z" fill="black"/>
<path d="M116.72 15.0869C116.707 9.52704 120.174 4.58346 125.49 2.34923C127.66 1.43755 129.945 1.00098 132.295 1.07802C136.648 1.21926 140.436 2.70875 143.428 5.94455C145.611 8.29435 146.779 11.0936 146.946 14.3165C147.305 21.0963 142.837 26.3224 137.251 28.1458C132.025 29.8535 127.043 29.2885 122.485 26.1168C119.519 24.0496 117.683 21.1862 117.002 17.6294C116.835 16.7819 116.809 15.9216 116.72 15.0869ZM131.82 8.12742C128.289 8.07607 125.04 10.734 125.053 15.0227C125.066 19.106 128.135 21.9823 131.884 21.9951C135.788 22.0079 138.728 19.1445 138.728 15.0869C138.715 10.8111 135.338 8.06322 131.82 8.12742Z" fill="black"/>
<path d="M27.4273 10.6444C32.7045 10.6444 37.9948 10.6444 43.3621 10.6444C43.452 9.12918 43.388 7.66536 43.4008 6.20156C43.4136 4.73774 43.4008 3.27394 43.4008 1.77161C46.444 1.77161 49.4229 1.77161 52.4403 1.77161C52.4403 10.6957 52.4403 19.5813 52.4403 28.4926C49.4229 28.4926 46.444 28.4926 43.4136 28.4926C43.4136 25.5265 43.4136 22.586 43.4136 19.6712C42.9129 19.5171 37.2501 19.4914 36.4156 19.6327C36.4156 22.5731 36.4156 25.5265 36.4156 28.5054C33.3724 28.5054 30.419 28.5054 27.4529 28.5054C27.3244 28.0431 27.2988 11.4918 27.4273 10.6444Z" fill="black"/>
<path d="M239.603 6.81793C237.561 8.3331 235.558 9.80975 233.529 11.3249C233.324 11.1066 233.157 10.914 232.977 10.7343C231.86 9.54009 230.589 8.61558 228.945 8.29457C225.35 7.5755 222.076 9.61714 221.28 13.1739C220.74 15.5879 221.087 17.8992 222.756 19.851C223.873 21.1607 225.337 21.8156 227.071 21.9311C229.549 22.098 231.513 21.1093 233.131 19.3117C233.311 19.1062 233.504 18.9008 233.722 18.6568C235.776 20.0564 237.792 21.4304 239.847 22.83C237.869 25.5009 235.468 27.5424 232.233 28.4284C228.226 29.5199 224.259 29.4301 220.483 27.5939C216.285 25.5521 213.729 22.2008 212.92 17.5911C211.546 9.7969 216.503 2.72182 224.31 1.30937C227.392 0.744389 230.435 0.885633 233.401 1.96424C235.905 2.8759 237.895 4.48095 239.487 6.58679C239.526 6.62532 239.539 6.68952 239.603 6.81793Z" fill="black"/>
<path d="M203.213 28.6209C203.213 19.6327 203.213 10.6957 203.213 1.74591C203.701 1.60467 210.648 1.56615 211.456 1.70739C211.456 10.6572 211.456 19.6198 211.456 28.6209C208.696 28.6209 205.961 28.6209 203.213 28.6209Z" fill="black"/>
</svg>
