<svg width="505" height="54" viewBox="0 0 505 54" fill="none" xmlns="http://www.w3.org/2000/svg">
<path d="M0.860749 26.5793C0.743789 12.1387 12.5068 -0.00248688 27.3903 3.82091e-07C42.4705 0.00248765 54.1089 12.1337 54.0391 26.7113C53.9671 41.4379 42.0473 53.2756 27.2981 53.1935C12.0763 53.1064 0.691532 40.5843 0.860749 26.5793ZM24.8371 10.8671C24.1453 10.2151 23.3789 9.6403 22.6672 8.94851C22.7791 8.9087 22.8439 8.87138 22.911 8.8639C23.8044 8.76188 24.6978 8.61756 25.5937 8.57525C27.3355 8.49064 29.0749 8.55286 30.8019 8.83903C32.3349 9.09285 33.828 9.48354 35.2787 10.041C35.3508 10.0683 35.413 10.1156 35.4702 10.1479C33.8752 11.9123 32.285 13.6467 30.7223 15.4061C29.7568 16.4935 28.8957 17.6656 28.0647 18.8601C28.0596 18.8675 28.0448 18.875 28.0348 18.875C28.0247 18.8775 28.015 18.87 27.9924 18.8675C27.9725 18.8053 27.9477 18.7381 27.9326 18.6685C27.6889 17.5188 27.4475 16.3691 27.206 15.2169C27.1787 15.0901 27.1639 14.9631 27.0444 14.8462C26.9224 14.9233 26.8105 14.988 26.7058 15.0627C25.9968 15.5604 25.3347 16.1178 24.7176 16.7275C22.7791 18.6361 21.3433 20.8782 20.3106 23.3816C19.4147 25.554 18.8324 27.8161 18.4915 30.1402C18.275 31.616 18.1581 33.0966 18.1481 34.5872C18.1406 35.814 18.1954 37.0358 18.3547 38.2526C18.4642 39.0962 18.596 39.9375 18.7229 40.781C18.7354 40.8681 18.7852 40.9502 18.815 41.0272C22.6771 40.5496 26.6536 39.0688 29.9036 36.2071C31.7401 34.5897 34.6267 30.9391 34.8084 29.9362C34.46 29.9063 34.1142 29.9239 33.7706 29.9412C33.4099 29.9585 33.0515 29.9834 32.6931 30.006C32.3447 30.0283 31.9989 30.0657 31.6505 30.0707C31.2996 30.0755 30.9512 30.1827 30.5655 30.1129C31.1453 29.4485 31.7077 28.8238 32.2478 28.1818C32.7877 27.5373 33.3203 26.8855 33.8303 26.2183C34.3355 25.5615 34.8257 24.8921 35.2935 24.2077C35.7689 23.516 36.2242 22.8068 36.6647 22.0901C37.1001 21.3784 37.5035 20.6443 37.9462 19.8754C40.1709 23.521 41.9577 27.3184 43.5429 31.3073C42.9059 31.1183 42.351 30.9464 41.7885 30.7873C41.216 30.6254 40.6563 30.4141 40.0191 30.3245C40.0143 30.511 40.0043 30.6628 40.0043 30.8146C39.9968 32.1361 40.0266 33.4598 39.9744 34.7787C39.9247 36.0976 39.8351 37.4166 39.6409 38.7229C39.4893 39.7557 39.3497 40.7908 39.1507 41.8136C38.9517 42.8363 38.6854 43.8468 38.4489 44.8646C38.4266 44.964 38.3719 45.0636 38.469 45.178C38.5734 45.1233 38.6705 45.0809 38.7601 45.0262C39.5415 44.5511 40.2879 44.0283 40.9972 43.451C43.6822 41.2662 45.7328 38.5937 47.1636 35.4431C48.2984 32.9448 48.908 30.3144 49.04 27.5772C49.0922 26.4846 49.0448 25.3949 48.9231 24.3048C48.7737 22.9884 48.5272 21.6944 48.1292 20.4328C46.3499 14.7815 42.8685 10.5138 37.6849 7.64954C34.8531 6.08677 31.8023 5.26061 28.5797 5.07646C27.0419 4.98937 25.5089 5.08394 23.9836 5.33028C22.0998 5.63387 20.2857 6.1689 18.5537 6.9652C14.617 8.77184 11.4716 11.4942 9.14984 15.1572C7.63188 17.5511 6.64395 20.1466 6.15869 22.9362C6.01435 23.7647 5.92477 24.5985 5.86007 25.437C5.75804 26.7733 5.83269 28.0997 5.96955 29.4284C5.97951 29.5155 6.02431 29.6004 6.07408 29.7545C6.16118 29.6077 6.2184 29.5231 6.2632 29.431C6.58173 28.7864 6.8878 28.1321 7.21878 27.4926C9.01794 23.9986 11.2177 20.7986 14.0446 18.0389C15.799 16.3268 17.7077 14.8238 19.798 13.5472C21.296 12.6314 22.8538 11.8277 24.4613 11.1209C24.5907 11.0637 24.745 11.0413 24.8371 10.8671Z" fill="black"/>
<path d="M202.159 37.9897C201.97 37.9568 201.783 37.8983 201.593 37.8948C200.977 37.8837 200.36 37.8873 199.742 37.891C197.566 37.9021 195.723 37.0951 194.167 35.6055C192.878 34.3714 192.134 32.8344 191.823 31.0855C191.674 30.2347 191.604 29.3768 191.608 28.5114C191.615 26.361 191.601 24.2106 191.623 22.0601C191.633 20.9867 191.747 19.9169 192.017 18.8727C192.86 15.6013 194.993 13.6444 198.235 12.8631C198.844 12.717 199.487 12.6623 200.118 12.644C202.057 12.5929 203.996 12.571 205.935 12.5527C207.008 12.5418 208.085 12.56 209.158 12.5673C209.21 12.5673 209.261 12.5929 209.359 12.6221C209.465 13.0347 209.392 13.4728 209.403 13.9073C209.414 14.3491 209.407 14.7872 209.407 15.229C209.407 15.6525 209.418 16.076 209.403 16.4995C209.385 16.934 209.476 17.3758 209.323 17.8504C209.111 17.8541 208.903 17.865 208.699 17.865C206.194 17.865 203.693 17.8541 201.188 17.8723C200.666 17.876 200.133 17.949 199.626 18.0731C198.143 18.4382 197.176 19.5336 197.052 21.2897C197.037 21.5161 197.041 21.7461 197.041 21.9761C197.044 24.2836 197.048 26.5947 197.048 28.9022C197.048 29.4534 197.121 29.9938 197.322 30.5085C197.804 31.7353 198.644 32.5056 200.009 32.6555C201.225 32.7905 202.437 32.7503 203.649 32.6773C203.912 32.6627 204.171 32.6299 204.42 32.6043C204.547 32.2172 204.584 28.6319 204.467 27.8506C204.332 27.836 204.182 27.8069 204.033 27.8032C203.364 27.7959 202.693 27.7959 202.024 27.7921C201.853 27.7921 201.681 27.7703 201.528 27.7592C201.407 27.3248 201.389 23.8928 201.499 23.243C201.63 23.2212 201.776 23.1772 201.926 23.1772C204.412 23.1589 206.895 23.1481 209.381 23.1371C209.516 23.1371 209.651 23.17 209.845 23.1956C209.812 27.6096 209.907 31.9908 209.787 36.3869C209.553 36.5402 209.359 36.686 209.148 36.8103C208.008 37.4638 206.763 37.7487 205.471 37.8619C205.142 37.891 204.814 37.953 204.485 37.9969C203.711 37.9897 202.937 37.9897 202.159 37.9897Z" fill="black"/>
<path d="M372.619 37.9897C372.428 37.9568 372.243 37.8983 372.052 37.8948C371.472 37.8837 370.887 37.891 370.307 37.8983C366.904 37.9312 363.246 35.4522 362.498 31.2279C362.366 30.4867 362.304 29.7237 362.293 28.9715C362.267 26.7335 362.282 24.4954 362.282 22.2572C362.282 21.0925 362.37 19.9315 362.665 18.7997C363.52 15.5576 365.637 13.6079 368.879 12.8631C369.507 12.717 370.169 12.6586 370.814 12.6404C372.755 12.5892 374.692 12.571 376.63 12.5527C377.686 12.5418 378.746 12.56 379.805 12.5673C379.87 12.5673 379.938 12.5966 379.998 12.6075C380.106 12.9982 380.121 17.248 380.008 17.8322C379.822 17.8431 379.617 17.8614 379.413 17.8614C376.821 17.865 374.228 17.865 371.635 17.8687C371.048 17.8687 370.478 17.9563 369.928 18.1607C368.781 18.5806 368.059 19.3547 367.81 20.5814C367.617 21.538 367.584 22.5018 367.587 23.4694C367.592 24.8094 367.597 26.1492 367.597 27.4892C367.597 28.3691 367.569 29.2599 367.838 30.1107C367.973 30.5414 368.164 30.9686 368.403 31.3556C368.744 31.9105 369.246 32.3121 369.891 32.4655C370.403 32.5859 370.927 32.7247 371.447 32.7285C372.589 32.7358 373.736 32.6663 374.878 32.6226C374.963 32.6188 375.044 32.5824 375.116 32.5641C375.224 32.1736 375.257 28.6357 375.157 27.8506C375.021 27.836 374.87 27.8032 374.722 27.7996C374.052 27.7921 373.382 27.7921 372.714 27.7886C372.541 27.7886 372.371 27.7703 372.212 27.7592C372.089 27.3469 372.059 24.0208 372.162 23.2977C372.345 23.108 372.586 23.1737 372.807 23.1737C374.727 23.17 376.652 23.17 378.572 23.17C379.034 23.17 379.489 23.1665 379.95 23.1737C380.118 23.1772 380.289 23.2066 380.442 23.2212C380.54 23.6812 380.585 35.1528 380.5 36.2626C380.38 36.3575 380.234 36.4817 380.078 36.5912C379.157 37.2156 378.128 37.566 377.039 37.7414C376.622 37.8069 376.201 37.829 375.779 37.88C375.608 37.9021 375.44 37.953 375.272 37.9932C374.381 37.9897 373.498 37.9897 372.619 37.9897Z" fill="black"/>
<path d="M504.907 17.303C504.751 17.292 504.593 17.2701 504.435 17.2665C502.851 17.2628 501.263 17.2628 499.679 17.2665C499.508 17.2665 499.335 17.2847 499.109 17.2993C499.091 17.5731 499.061 17.8105 499.061 18.0514C499.059 22.0348 499.059 26.0144 499.059 29.9978C499.059 32.1992 499.059 34.4008 499.059 36.606C499.059 36.796 499.059 36.9895 499.059 37.2011C498.901 37.2377 498.785 37.2851 498.672 37.2851C497.174 37.2889 495.673 37.2889 494.177 37.2851C494.089 37.2851 494.004 37.2595 493.929 37.2487C493.73 37.048 493.793 36.8068 493.793 36.5841C493.786 34.8062 493.793 33.0244 493.786 31.2464C493.778 29.3806 493.751 27.5113 493.753 25.6457C493.758 23.1446 493.778 20.6437 493.791 18.1427C493.791 17.8835 493.763 17.6243 493.746 17.3176C493.495 17.303 493.289 17.2774 493.08 17.2774C491.529 17.2738 489.981 17.2738 488.43 17.2701C488.239 17.2701 488.051 17.2555 487.877 17.2482C487.739 16.7699 487.732 13.1116 487.875 12.5931C488.043 12.5785 488.234 12.553 488.42 12.553C493.919 12.5493 499.415 12.5493 504.914 12.5493C504.907 14.1302 504.907 15.7148 504.907 17.303Z" fill="black"/>
<path d="M86.9 21.9405C86.6663 22.7765 86.586 23.6492 86.4181 24.4963C86.2502 25.3433 86.1187 26.1939 85.9726 27.0448C85.823 27.9137 85.6804 28.7788 85.5271 29.6477C85.381 30.4986 85.2314 31.3457 85.0781 32.1963C84.9212 33.0616 84.7603 33.9268 84.607 34.7922C84.4574 35.6393 84.3078 36.4863 84.1652 37.3041C83.7052 37.4356 78.5499 37.4539 77.9293 37.3297C75.6694 29.1222 73.402 20.8853 71.1348 12.6486C71.5984 12.5244 76.6076 12.5208 77.1407 12.6413C77.7869 15.2079 78.3637 17.8148 78.9736 20.4144C79.5832 22.9956 80.1673 25.5805 80.9268 28.1581C80.9707 28.0778 81.0365 28.0048 81.051 27.921C81.2664 26.5481 81.4709 25.1717 81.69 23.7988C81.9455 22.1814 82.2121 20.5677 82.4749 18.9539C82.7816 17.059 83.0845 15.1678 83.3912 13.2729C83.4241 13.0648 83.4753 12.8603 83.5265 12.6084C83.7052 12.5901 83.8733 12.561 84.0448 12.561C85.9836 12.5573 87.9222 12.5573 89.8646 12.561C90.018 12.561 90.1748 12.5865 90.3794 12.6011C90.719 14.3427 90.9599 16.0806 91.2483 17.8112C91.5367 19.5308 91.8143 21.2504 92.0919 22.97C92.373 24.7006 92.6357 26.4314 92.9497 28.1983C93.1944 28.0487 93.198 27.8663 93.2381 27.7019C93.8661 25.011 94.4978 22.3202 95.1258 19.6294C95.6333 17.4534 96.1445 15.2773 96.6555 13.1013C96.6922 12.948 96.7431 12.8019 96.8016 12.6084C96.9913 12.5901 97.1776 12.5573 97.3638 12.5573C98.9666 12.55 100.573 12.55 102.176 12.5537C102.362 12.5537 102.563 12.5135 102.771 12.6778C100.507 20.8963 98.2438 29.1222 95.9874 37.3186C95.509 37.4283 90.3939 37.4429 89.7587 37.3369C89.4156 35.6611 89.1526 33.9414 88.8496 32.2329C88.5429 30.5169 88.2362 28.8044 87.9406 27.0849C87.6447 25.3725 87.3563 23.6602 87.0606 21.9478C87.0059 21.9441 86.9547 21.9405 86.9 21.9405Z" fill="black"/>
<path d="M287.62 37.313C287.116 37.437 283.327 37.4515 282.724 37.3458C282.71 37.1777 282.684 36.9917 282.684 36.8055C282.681 35.7137 282.691 34.6184 282.677 33.5268C282.64 30.7959 282.596 28.0649 282.545 25.3337C282.534 24.6839 282.487 24.0376 282.458 23.3549C282.239 23.4352 282.231 23.5996 282.195 23.7419C281.666 25.7501 281.129 27.7544 280.614 29.7661C280.012 32.1176 279.427 34.4761 278.832 36.8311C278.788 36.999 278.737 37.1669 278.694 37.3165C278.244 37.4442 274.126 37.459 273.294 37.3386C273.239 37.1669 273.166 36.9734 273.115 36.7761C272.18 33.0194 271.245 29.2624 270.311 25.5054C270.135 24.8043 269.96 24.1071 269.781 23.4061C269.748 23.2784 269.686 23.1614 269.613 22.9789C269.453 23.2088 269.504 23.4061 269.504 23.5851C269.5 27.2507 269.496 30.9163 269.496 34.582C269.496 35.356 269.5 36.1336 269.496 36.9076C269.496 37.0427 269.471 37.1814 269.456 37.3566C268.898 37.459 268.354 37.3968 267.817 37.4078C267.255 37.4189 266.689 37.4114 266.123 37.4114C265.579 37.4114 265.035 37.4114 264.472 37.4114C264.44 37.2399 264.414 37.123 264.399 37.0063C264.389 36.9003 264.396 36.7944 264.396 36.6885C264.396 28.8826 264.396 21.0731 264.396 13.2671C264.396 13.059 264.411 12.8545 264.414 12.6647C264.867 12.5259 270.376 12.5077 271.096 12.6354C271.154 12.8034 271.231 12.9969 271.282 13.1941C272.775 18.8605 274.265 24.527 275.758 30.197C275.802 30.3577 275.864 30.5145 275.929 30.6935C276.178 30.5768 276.16 30.3687 276.204 30.2153C276.861 27.842 277.507 25.4652 278.149 23.0849C279.04 19.7879 279.92 16.491 280.807 13.1941C280.859 13.0079 280.928 12.829 280.997 12.6099C281.158 12.5916 281.308 12.5551 281.461 12.5551C283.33 12.5515 285.2 12.5515 287.065 12.5515C287.219 12.5515 287.372 12.5807 287.573 12.599C287.588 12.8509 287.617 13.0736 287.617 13.2963C287.62 17.1189 287.62 20.9452 287.62 24.768C287.62 28.7147 287.62 32.6652 287.62 36.612C287.62 36.8456 287.62 37.072 287.62 37.313Z" fill="black"/>
<path d="M332.163 37.3125C331.681 37.4295 327.789 37.4476 327.212 37.3454C327.19 37.2433 327.157 37.1301 327.146 37.0131C327.135 36.8926 327.142 36.7649 327.142 36.6444C327.142 28.8714 327.142 21.0983 327.146 13.3252C327.146 13.0989 327.161 12.8761 327.168 12.6169C327.763 12.5037 328.325 12.5695 328.88 12.5585C329.461 12.5475 330.045 12.5548 330.626 12.5548C331.188 12.5548 331.75 12.5548 332.323 12.5548C332.433 12.7337 332.528 12.8798 332.612 13.0295C335.014 17.4363 337.417 21.8468 339.819 26.2571C339.95 26.4946 340.096 26.7245 340.297 27.0495C340.44 26.4617 340.367 25.9906 340.377 25.527C340.388 25.0524 340.377 24.574 340.377 24.0994C340.377 23.6248 340.377 23.1464 340.377 22.6718C340.377 22.1972 340.377 21.719 340.377 21.2443C340.377 20.7697 340.377 20.2914 340.377 19.8168C340.377 19.3421 340.377 18.8638 340.377 18.3892C340.377 17.9146 340.377 17.4363 340.377 16.9616C340.377 16.487 340.377 16.0087 340.377 15.5341C340.377 15.0595 340.377 14.5812 340.377 14.1065C340.377 13.6319 340.377 13.1573 340.377 12.6425C340.538 12.6096 340.67 12.5621 340.801 12.5621C342.229 12.5585 343.656 12.5585 345.084 12.5621C345.186 12.5621 345.288 12.595 345.368 12.6096C345.398 12.6461 345.409 12.6571 345.42 12.6717C345.43 12.6863 345.442 12.7009 345.445 12.7155C345.456 12.8031 345.474 12.8907 345.474 12.9747C345.474 21.0289 345.474 29.0832 345.471 37.1373C345.471 37.1885 345.449 37.2395 345.427 37.3236C345.321 37.3492 345.208 37.3966 345.095 37.3966C343.579 37.4001 342.06 37.4001 340.546 37.3966C340.458 37.3966 340.374 37.371 340.217 37.3492C338.917 34.9284 337.606 32.475 336.288 30.0287C334.985 27.6044 333.7 25.1729 332.349 22.7157C332.141 22.9383 332.184 23.1211 332.184 23.289C332.181 24.0118 332.188 24.7346 332.188 25.4577C332.192 29.1598 332.192 32.8621 332.192 36.5606C332.192 36.8088 332.174 37.0533 332.163 37.3125Z" fill="black"/>
<path d="M438.295 37.3225C437.836 37.4284 433.908 37.4432 433.105 37.3408C433.02 37.202 432.917 37.0414 432.826 36.8735C430.402 32.3351 427.982 27.7971 425.56 23.2587C425.465 23.0798 425.357 22.9046 425.144 22.7475C425.119 22.8717 425.068 22.996 425.068 23.1237C425.061 23.653 425.068 24.1824 425.068 24.7082C425.084 27.9504 425.099 31.1924 425.109 34.4381C425.111 35.2305 425.111 36.0229 425.109 36.8187C425.109 36.9904 425.086 37.1583 425.076 37.3152C424.554 37.4432 420.526 37.4394 420.089 37.3262C419.989 36.9392 419.971 13.2184 420.074 12.6269C420.177 12.605 420.292 12.5575 420.405 12.5575C421.904 12.5502 423.404 12.5502 424.9 12.5502C425.003 12.5502 425.104 12.5831 425.264 12.6086C426.577 15.0147 427.897 17.4426 429.222 19.8706C430.537 22.2766 431.827 24.6971 433.173 27.085C433.21 27.0815 433.251 27.0742 433.286 27.0705C433.308 26.9462 433.348 26.8222 433.348 26.698C433.366 25.431 433.394 24.1605 433.394 22.8936C433.399 19.7026 433.394 16.5116 433.396 13.3242C433.396 13.1015 433.426 12.8788 433.439 12.6233C433.999 12.5028 434.528 12.5685 435.048 12.5575C435.595 12.5466 436.139 12.5539 436.687 12.5539C437.211 12.5575 437.733 12.5648 438.205 12.5685C438.27 12.6415 438.28 12.6561 438.293 12.6707C438.303 12.6853 438.313 12.6999 438.313 12.7182C438.326 12.8241 438.341 12.9263 438.341 13.0322C438.341 21.0681 438.336 29.1077 438.336 37.1438C438.341 37.1912 438.315 37.2422 438.295 37.3225Z" fill="black"/>
<path d="M174.626 37.2998C174.181 37.4276 169.07 37.4459 168.471 37.3289C167.321 34.284 166.295 31.1587 165.094 28.0698C163.947 28.0698 162.845 28.0407 161.691 28.0992C161.669 28.3585 161.636 28.5773 161.636 28.8002C161.632 31.4253 161.632 34.0541 161.629 36.6791C161.629 36.8872 161.629 37.0953 161.629 37.3217C161.461 37.358 161.348 37.4057 161.231 37.4057C159.785 37.4093 158.339 37.4093 156.893 37.4057C156.791 37.4057 156.689 37.3764 156.528 37.3508C156.51 37.1281 156.477 36.9055 156.477 36.6864C156.473 34.4301 156.47 32.1737 156.47 29.9173C156.47 24.4007 156.47 18.8839 156.47 13.3672C156.47 13.1262 156.495 12.8852 156.51 12.6004C156.74 12.5822 156.93 12.5493 157.116 12.5493C160.906 12.553 164.696 12.553 168.489 12.5639C170.183 12.5712 171.563 13.243 172.589 14.5975C173.086 15.2511 173.33 16.0105 173.334 16.8174C173.345 18.9496 173.316 21.0818 173.308 23.214C173.305 24.5869 172.618 25.5871 171.574 26.3832C171.213 26.6605 170.807 26.8797 170.377 27.1572C170.442 27.347 170.501 27.5405 170.581 27.7302C171.454 29.7896 172.33 31.8487 173.206 33.9042C173.619 34.8756 174.031 35.8504 174.444 36.8214C174.506 36.9675 174.557 37.1136 174.626 37.2998ZM161.724 17.4235C161.596 17.9492 161.599 22.754 161.72 23.2725C161.851 23.2943 162.005 23.3383 162.154 23.3383C163.582 23.3234 165.01 23.3234 166.433 23.2725C167.408 23.2396 168.102 22.513 168.139 21.5309C168.164 20.7569 168.168 19.9792 168.135 19.2052C168.12 18.8985 168.025 18.5772 167.898 18.2961C167.689 17.8397 167.321 17.5403 166.799 17.4892C166.328 17.4417 165.853 17.387 165.378 17.3797C164.305 17.365 163.228 17.3796 162.154 17.3833C162.016 17.3869 161.877 17.4088 161.724 17.4235Z" fill="black"/>
<path d="M469.978 22.1004C469.978 23.6887 469.978 25.1966 469.978 26.7665C469.747 26.7848 469.529 26.8177 469.308 26.8177C466.63 26.8212 463.95 26.8212 461.269 26.825C461.026 26.825 460.785 26.8506 460.491 26.8651C460.463 27.0842 460.423 27.2667 460.423 27.4529C460.418 28.9498 460.418 30.4505 460.423 31.9473C460.423 32.1336 460.466 32.3198 460.498 32.5643C461.683 32.568 462.825 32.568 463.967 32.5715C465.132 32.5715 466.294 32.5715 467.458 32.5715C468.6 32.5715 469.745 32.5715 470.937 32.5715C471.032 33.1375 470.982 33.6596 470.99 34.1819C470.997 34.6929 470.992 35.2041 470.992 35.7151C470.992 36.2409 470.992 36.7668 470.992 37.3435C470.751 37.3656 470.566 37.3982 470.38 37.402C469.408 37.4058 468.44 37.4058 467.468 37.4058C463.626 37.4058 459.783 37.4058 455.938 37.4058C455.712 37.4058 455.486 37.4058 455.238 37.4058C455.198 37.2414 455.163 37.1282 455.15 37.0112C455.135 36.8727 455.147 36.7301 455.147 36.5878C455.147 28.8512 455.15 21.1147 455.15 13.3781C455.15 13.1372 455.168 12.8925 455.18 12.5968C455.456 12.5785 455.695 12.553 455.936 12.553C460.729 12.5493 465.526 12.5493 470.32 12.5493C470.51 12.5493 470.701 12.5676 470.937 12.5785C471.047 13.1116 470.982 13.6191 470.992 14.1229C471.002 14.6341 470.997 15.1452 470.997 15.6564C470.997 16.1639 470.997 16.6714 470.997 17.2336C470.734 17.2482 470.528 17.2665 470.325 17.2665C467.275 17.2701 464.223 17.2701 461.174 17.2701C460.968 17.2701 460.76 17.2701 460.504 17.2701C460.471 17.4819 460.423 17.6498 460.423 17.8141C460.416 19.0665 460.416 20.3151 460.423 21.5674C460.423 21.7208 460.463 21.8741 460.488 22.0859C461.555 22.115 462.587 22.0969 463.626 22.1004C464.682 22.1042 465.739 22.1004 466.798 22.1004C467.835 22.1004 468.871 22.1004 469.978 22.1004Z" fill="black"/>
<path d="M138.607 37.3157C138.081 37.4435 133.506 37.44 133.028 37.3122C132.659 35.6801 132.283 34.0226 131.918 32.3979C131.451 32.281 126.19 32.2627 125.58 32.3651C125.525 32.5548 125.452 32.7666 125.401 32.9857C125.109 34.2891 124.828 35.5962 124.539 36.9031C124.507 37.053 124.445 37.199 124.404 37.3303C123.784 37.4545 119.267 37.4435 118.829 37.3157C118.829 37.2209 118.811 37.115 118.833 37.0163C119.191 35.3588 125.416 13.0035 125.653 12.5617C127.657 12.5398 129.695 12.5544 131.776 12.5508C131.845 12.7552 131.918 12.9305 131.966 13.113C133.16 17.4359 134.353 21.7624 135.544 26.0889C136.526 29.6522 137.504 33.2121 138.483 36.7754C138.53 36.9433 138.563 37.115 138.607 37.3157ZM130.797 27.9545C130.83 27.5165 129.52 21.3936 128.932 19.2504C128.906 19.1592 128.837 19.0788 128.778 18.973C128.548 19.422 126.73 27.3996 126.734 27.9327C126.789 27.9583 126.851 28.0092 126.913 28.0092C128.128 28.0203 129.341 28.024 130.556 28.024C130.637 28.0203 130.721 27.9763 130.797 27.9545Z" fill="black"/>
<path d="M226.753 37.3983C226.753 37.2268 226.735 37.1355 226.757 37.0587C228.991 28.917 231.229 20.7788 233.475 12.615C234.011 12.5092 234.522 12.5676 235.026 12.5566C235.556 12.5457 236.085 12.553 236.611 12.553C237.122 12.553 237.633 12.5493 238.144 12.5493C238.652 12.5493 239.163 12.5493 239.638 12.5493C239.897 13.024 246.378 36.4636 246.498 37.3328C246.06 37.4751 245.603 37.3875 245.154 37.402C244.68 37.4166 244.202 37.4055 243.727 37.4055C243.27 37.4055 242.81 37.4093 242.354 37.4055C241.901 37.402 241.448 37.3947 240.97 37.3875C240.583 35.675 240.207 34.0175 239.838 32.3929C239.386 32.2724 234.062 32.2613 233.504 32.3708C233.073 33.9884 232.785 35.6677 232.35 37.3654C231.416 37.4495 230.488 37.3947 229.561 37.402C228.633 37.4131 227.706 37.4239 226.753 37.3983ZM236.72 18.9167C236.447 19.49 234.646 27.4931 234.672 27.9459C234.749 27.9677 234.829 28.0152 234.913 28.0152C236.129 28.0152 237.341 28.0114 238.557 28.0041C238.619 28.0041 238.681 27.9532 238.802 27.902C238.199 25.0322 237.502 22.1845 236.885 19.322C236.859 19.2088 236.797 19.1029 236.72 18.9167Z" fill="black"/>
<path d="M309.809 37.3217C309.331 37.4384 305.081 37.4422 304.61 37.3252C304.591 37.2705 304.551 37.2048 304.551 37.1392C304.551 29.0337 304.551 20.9285 304.555 12.8268C304.555 12.7611 304.595 12.6954 304.614 12.6406C305.084 12.5201 309.327 12.5201 309.776 12.6333C309.787 12.6479 309.802 12.6589 309.809 12.6735C309.816 12.6881 309.827 12.7063 309.827 12.7209C309.838 12.8268 309.853 12.929 309.853 13.0349C309.853 21.0709 309.849 29.1032 309.845 37.1392C309.853 37.1902 309.831 37.2376 309.809 37.3217Z" fill="black"/>
<path d="M402.413 27.451C401.87 27.575 397.935 27.5677 397.508 27.4473C397.39 27.0238 397.385 23.1682 397.493 22.6828C397.872 22.5769 401.81 22.5513 402.367 22.6534C402.488 23.0149 402.525 26.7975 402.413 27.451Z" fill="black"/>
</svg>
