<svg width="346" height="33" viewBox="0 0 346 33" fill="none" xmlns="http://www.w3.org/2000/svg">
<path fill-rule="evenodd" clip-rule="evenodd" d="M9.55091 1.44373C6.04926 3.11822 2.92478 6.16361 1.20563 9.57665C0.15382 11.6647 -0.00286251 12.6132 3.90307e-05 16.8662C0.00342415 21.3509 0.120453 21.9694 1.41696 24.3405C3.04375 27.3164 5.98734 30.2313 9.01607 31.8653C10.8324 32.8449 11.8117 33 16.1969 33C20.9201 33 21.4549 32.8987 23.8608 31.5518C27.2585 29.649 30.4028 26.0479 31.6876 22.5873C33.0774 18.8433 32.8695 13.0601 31.2219 9.63432C29.6275 6.31907 26.3618 3.12703 22.8428 1.44373C20.3345 0.243963 19.2101 0 16.1969 0C13.1836 0 12.0593 0.243963 9.55091 1.44373ZM47.9774 3.14609C40.9286 5.68839 37.3979 13.1989 39.6486 20.8615C41.887 28.4815 51.4296 32.3628 58.8736 28.6811C60.3186 27.9662 61.8831 26.9541 62.3506 26.4325C63.1659 25.5212 63.1476 25.4128 61.8863 23.7411C60.3535 21.7093 60.246 21.6848 58.6041 22.9907C57.9189 23.5353 56.5909 24.3053 55.6534 24.7018C48.9561 27.5306 42.2217 20.1634 44.936 12.9779C45.8341 10.6004 48.3894 8.01557 50.3276 7.52375C52.4307 6.99034 55.7854 7.64742 57.7841 8.98458C58.8374 9.68959 59.8669 10.266 60.0725 10.266C60.2774 10.266 61.0826 9.45882 61.8612 8.47171L63.2771 6.67793L61.6194 5.27723C58.5316 2.66891 52.0902 1.66276 47.9774 3.14609ZM74.7335 2.95101C72.0629 3.51326 68.5879 5.86098 66.9204 8.2302C61.6272 15.7495 64.9408 26.7688 73.3178 29.5038C82.2193 32.4103 90.8718 27.0412 91.9279 17.956C93.0372 8.415 84.4367 0.909848 74.7335 2.95101ZM95.0218 16.323V29.8221H101.706C109.222 29.8221 111.601 29.2662 114.53 26.8257C117.445 24.3963 118.907 20.9886 118.907 16.6217C118.907 10.7392 116.305 6.66963 110.98 4.22217C109.205 3.40618 107.535 3.18521 101.913 3.0229L95.0218 2.82391V16.323ZM129.134 5.4992C120.723 24.496 118.718 29.104 118.718 29.4335C118.718 29.6472 119.874 29.8221 121.288 29.8221H123.859L124.985 27.011C125.604 25.4646 126.274 24.0139 126.473 23.7871C126.673 23.5602 129.454 23.5324 132.654 23.7255L138.472 24.0765L139.534 26.9493L140.597 29.8221H143.421H146.245L144.535 25.7887C143.593 23.57 141.045 17.5238 138.871 12.3522L134.918 2.94906L132.594 2.94076L130.271 2.93243L129.134 5.4992ZM149.184 16.3773V29.8221H153.052H156.921V26.1553V22.4886L160.427 22.4778C165.614 22.4622 169.084 20.5467 170.429 16.9566C171.238 14.7986 171.032 10.2626 170.024 8.01753C168.215 3.99044 165.279 2.9388 155.833 2.93538L149.184 2.93243V16.3773ZM178.143 6.23253C177.336 8.04735 174.817 13.9328 172.545 19.3107C170.273 24.6886 168.317 29.2535 168.2 29.4555C168.083 29.6574 169.857 29.8221 172.143 29.8221H176.299L177.232 27.622L178.165 25.4219H182.978H187.791L188.622 27.622L189.453 29.8221H193.498C195.722 29.8221 197.543 29.6472 197.543 29.433C197.543 29.0981 195.039 22.8944 188.375 6.72144L186.813 2.93243H183.211H179.609L178.143 6.23253ZM192.67 3.84034C192.934 4.34001 195.227 8.13143 197.765 12.2656L202.379 19.783V24.8025V29.8221H206.247H210.116V24.8881V19.9546L214.952 11.9292C217.612 7.51542 219.788 3.67704 219.788 3.39936C219.788 3.07961 218.238 2.94614 215.569 3.03559L211.35 3.17688L209.069 7.32328C207.814 9.60353 206.61 11.5288 206.394 11.6017C206.178 11.6745 204.914 9.75754 203.586 7.34187L201.17 2.94957L196.679 2.94076C192.453 2.93294 192.217 2.98574 192.67 3.84034ZM221.722 16.3773V29.8221H225.349H228.976L229.001 23.3441L229.025 16.8662L231.423 21.633L233.821 26.3997H235.883H237.944L240.444 21.3885L242.943 16.3773L242.972 23.0997L243 29.8221H246.627H250.254V16.3773V2.93243H246.498H242.742L239.428 9.6539L236.115 16.3753L232.784 9.6539L229.453 2.93243H225.587H221.722V16.3773ZM254.122 16.3773V29.8221H264.52H274.917V26.6442V23.4664H268.389H261.861V21.5108V19.5552H267.179H272.499V16.3773V13.1994H267.179H261.861V11.4882V9.77709H268.146H274.433V6.35476V2.93243H264.279H254.122V16.3773ZM277.817 16.3773V29.8221H281.446H285.071L285.074 22.3664L285.076 14.9106L289.983 22.3664L294.889 29.8221H298.685H302.482V16.3773V2.93243H298.868H295.253L295.12 10.1438L294.987 17.3551L290.196 10.1438L285.403 2.93243H281.611H277.817V16.3773ZM304.415 6.35476V9.77709H307.8H311.187V19.7996V29.8221H315.054H318.923V19.7996V9.77709H322.551H326.177V6.35476V2.93243H315.297H304.415V6.35476ZM331.738 3.62523C330.94 3.98554 329.644 4.97069 328.858 5.81501C327.658 7.10523 327.402 7.83468 327.246 10.3965C326.993 14.5595 328.098 16.1553 333.112 18.8545C337.548 21.2438 338.518 22.1009 338.083 23.2469C337.624 24.455 333.93 23.9308 331.515 22.315L329.619 21.0453L327.658 23.3559C326.581 24.6266 325.7 25.8116 325.697 25.9895C325.69 26.793 328.871 28.8892 331.123 29.5655C335.068 30.7491 338.683 30.5438 341.661 28.9666C344.755 27.3296 346.005 25.2499 346 21.763C345.995 17.8445 344.491 16.1157 338.387 13.0136C334.839 11.2101 334.139 10.2142 335.788 9.32143C336.888 8.72644 339.447 9.37766 340.772 10.5906C341.656 11.3988 341.787 11.3406 343.918 9.18453C345.277 7.8112 346.038 6.65691 345.872 6.21984C345.721 5.82625 344.451 4.92522 343.047 4.21826C340.951 3.16224 339.841 2.93586 336.843 2.95152C334.834 2.96226 332.537 3.26538 331.738 3.62523ZM82.6889 8.84816C85.1847 10.5505 87.0184 14.5185 86.6312 17.3781C85.9932 22.0804 83.1695 24.9556 78.8317 25.3193C75.4747 25.6009 72.715 24.1235 70.9677 21.1094C68.2208 16.3704 70.2709 9.94135 75.1947 7.85375C77.1009 7.04558 80.757 7.53106 82.6889 8.84816ZM108.925 8.85844C114.128 11.4051 115.353 18.6541 111.277 22.7756C109.428 24.6441 106.979 25.4156 102.88 25.4191L99.8577 25.4219V21.0972C99.8577 18.7182 99.9991 14.758 100.172 12.2969L100.486 7.82148H103.646C105.878 7.82148 107.429 8.12607 108.925 8.85844ZM20.5985 9.8998C23.0208 11.5225 24.6142 15.0617 24.1949 17.888C23.5315 22.36 19.1676 25.4336 14.5706 24.6666C11.9118 24.2227 8.69207 20.9534 8.25586 18.2547C7.71763 14.9252 9.24627 11.4482 11.9916 9.75559C14.2224 8.38078 18.4359 8.45117 20.5985 9.8998ZM161.695 9.82841C164.235 10.7236 164.984 13.3598 163.208 15.155C162.506 15.8644 161.596 16.1328 159.892 16.1328H157.543L157.23 13.1075C156.828 9.21827 157.845 8.47171 161.695 9.82841ZM134.406 14.5996C135.353 16.8349 136.127 18.8643 136.127 19.1098C136.127 19.3547 134.386 19.5552 132.258 19.5552C130.13 19.5552 128.389 19.4657 128.389 19.3562C128.389 19.2467 129.063 17.6519 129.887 15.8116C130.71 13.9714 131.587 11.9405 131.835 11.2981C132.082 10.6561 132.375 10.2215 132.485 10.3325C132.595 10.4439 133.459 12.3639 134.406 14.5996ZM184.147 15.7662C184.543 16.9087 185.022 18.2292 185.212 18.6996C185.514 19.4496 185.245 19.5552 183.035 19.5552C180.244 19.5552 180.33 19.8573 181.964 15.7681C182.42 14.626 182.936 13.6912 183.111 13.6903C183.285 13.6893 183.752 14.6236 184.147 15.7662Z" fill="black"/>
</svg>
