<svg width="184" height="37" viewBox="0 0 184 37" fill="none" xmlns="http://www.w3.org/2000/svg">
<path fill-rule="evenodd" clip-rule="evenodd" d="M70.1732 0.767259C70.442 1.87239 70.5202 1.95302 71.3238 1.95302C71.9375 1.95302 72.0228 1.85648 71.8779 1.32526C71.7841 0.980137 71.7054 0.540708 71.7034 0.348754C71.7011 0.147592 71.3368 0 70.8431 0C70.0531 0 70.0015 0.0591487 70.1732 0.767259ZM76.5994 0.960885C76.2589 2.05207 76.3522 2.23202 77.2573 2.23202C77.6572 2.23202 77.9608 2.02138 78.0611 1.67402C78.1496 1.36711 78.294 0.864909 78.3825 0.558007C78.5169 0.091792 78.4081 0 77.7214 0C77.0314 0 76.8509 0.154567 76.5994 0.960885ZM108.957 1.2251C107.735 1.76609 107.148 2.70018 107.148 4.1033C107.148 5.87804 108.263 7.00158 110.206 7.18515C111.582 7.31546 111.731 7.26495 112.654 6.35679C113.822 5.20787 114.142 4.18894 113.68 3.09108C112.912 1.26751 110.771 0.421573 108.957 1.2251ZM65.933 2.41812C65.829 2.52024 65.744 3.22053 65.744 3.97412C65.744 5.12891 65.8796 5.47738 66.6077 6.19387C67.3992 6.97228 67.5938 7.03199 68.9291 6.90587C69.9862 6.806 70.5287 6.59618 70.9013 6.14308C71.5517 5.35296 71.5464 5.26088 70.8 4.32735C69.7976 3.07349 66.5583 1.80292 65.933 2.41812ZM70.2813 2.78025C70.2813 2.92813 70.52 3.17504 70.8118 3.32849C71.1031 3.48224 71.5594 4.05922 71.8254 4.61079C72.2682 5.52844 72.2712 5.67074 71.8626 6.28455C71.6169 6.65366 71.1528 7.09393 70.8313 7.26327C70.5099 7.43236 70.2865 7.66896 70.3349 7.78892C70.3836 7.90889 71.2192 8.72859 72.192 9.61025L73.9608 11.2137L75.2804 10.0709C76.0065 9.4423 76.7072 8.9281 76.8378 8.9281C77.242 8.9281 78.2038 11.0535 78.6974 13.0375C79.2285 15.1713 79.3834 22.5881 78.975 26.3228L78.7353 28.5122L77.3985 25.8899C74.8842 20.9573 70.9482 15.5273 66.7409 11.1866C61.0585 5.32422 58.5383 5.85293 56.7692 13.2783C56.3731 14.9423 56.2437 16.582 56.2437 19.9487C56.2437 24.8968 56.6815 26.9461 58.432 30.1945C60.1326 33.3506 63.7174 35.8621 66.9274 36.1463L68.438 36.2802L67.0069 35.7748C65.0059 35.0686 63.7626 34.2588 62.27 32.689C60.6624 30.9981 60.183 30.0901 59.4893 27.4209C58.4837 23.552 58.8464 17.8163 60.4087 12.8899L61.0016 11.0206L61.4878 12.6946C63.2955 18.915 67.2842 24.9725 73.4388 30.8439C76.4174 33.6858 80.6623 37.0313 80.9411 36.757C81.0249 36.6746 81.2944 35.5585 81.5403 34.2765C82.1546 31.0728 82.1554 18.7052 81.5419 15.4847C80.8087 11.6389 80.0834 10.1153 78.0879 8.23057C75.7194 5.99326 75.6306 5.63278 77.0693 4.09716L78.2171 2.87233L75.8796 2.6935C72.5132 2.43542 70.2813 2.47029 70.2813 2.78025ZM80.0884 3.21076C78.0288 4.03438 77.0876 4.87697 77.0876 5.89785C77.0876 6.8858 77.8598 7.31322 79.6935 7.34028C81.5677 7.36818 82.4971 6.49212 82.6901 4.51622C82.8789 2.58104 82.3399 2.31042 80.0884 3.21076ZM43.7534 8.03166L41.4723 8.11173L38.5865 15.1462C34.9609 23.9845 30.5176 35.9467 30.7332 36.2896C30.9867 36.6934 35.5621 36.6144 35.8948 36.2005C36.0487 36.0089 36.7172 34.2198 37.3798 32.2248C38.0422 30.23 38.7859 28.4409 39.0318 28.249C39.6631 27.7566 48.1415 27.7599 48.8269 28.2529C49.0965 28.4468 49.894 30.2361 50.5993 32.2287C51.3045 34.2213 52.0008 35.9704 52.1465 36.1152C52.2924 36.2597 53.561 36.3934 54.966 36.4114C56.9347 36.4371 57.5199 36.3587 57.5199 36.0688C57.5199 35.739 48.328 12.3336 47.01 9.30754C46.7334 8.67225 46.4007 8.10726 46.2708 8.05201C46.141 7.99678 45.008 7.98758 43.7534 8.03166ZM0.303627 8.32265C0.0225922 8.49816 -0.0380956 11.5167 0.02004 22.4753L0.0934892 36.4048L2.36219 36.4213C3.60996 36.4304 4.80048 36.3143 5.0075 36.1623C5.31348 35.9386 5.34723 34.3907 5.18699 27.918C5.06507 22.9778 5.09087 20.0547 5.25506 20.2277C5.40055 20.3811 5.95041 21.4483 6.47677 22.5992C7.00311 23.7501 8.60962 27.0926 10.0468 30.0265C12.6402 35.3212 12.668 35.3631 13.7028 35.5538C14.2765 35.6598 15.1318 35.6631 15.604 35.5609C16.6062 35.3444 16.8838 34.8059 20.4145 26.2335C21.6456 23.2451 22.762 20.6922 22.8959 20.5605C23.0312 20.4275 23.1225 23.8863 23.1015 28.3575L23.0641 36.3937L25.6163 36.3954L28.1686 36.3974L28.1904 22.3836L28.212 8.37009H25.7306H23.2492L21.6268 12.4854C19.0436 19.0369 14.973 29.0812 14.7226 29.5215C14.4314 30.0336 14.5261 30.2095 12.3419 25.1102C9.75929 19.0807 5.39261 9.47214 4.89265 8.71885C4.52822 8.16977 4.23671 8.09165 2.56835 8.09527C1.51908 8.09777 0.49987 8.19989 0.303627 8.32265ZM84.6064 8.64909C84.56 8.7258 84.4763 9.72325 84.4204 10.8655L84.3191 12.9421L88.5018 12.8651L92.6848 12.7878L92.6675 18.4608C92.6578 21.5809 92.5447 26.7702 92.4163 29.9929C92.2792 33.4181 92.2877 35.9632 92.4364 36.1196C92.7789 36.4807 97.4831 36.4953 97.7812 36.1362C97.9111 35.98 97.8966 32.9014 97.7489 29.2954C97.6007 25.6891 97.5631 20.457 97.6646 17.6687L97.8492 12.5984L101.506 12.7585L105.163 12.9184V10.714V8.50958H94.9268C89.2971 8.50958 84.6528 8.57235 84.6064 8.64909ZM107.894 8.61673C107.844 8.7113 107.815 15.0011 107.83 22.5942L107.857 36.3998L110.267 36.4161C111.593 36.425 112.805 36.3942 112.961 36.3483C113.146 36.2935 113.23 31.434 113.201 22.3869L113.158 8.50958L110.571 8.47721C109.149 8.45965 107.944 8.52243 107.894 8.61673ZM123.17 9.57762C119.688 11.241 117.835 15.2129 118.885 18.7655C119.281 20.1083 119.666 20.5996 122.166 22.9522C123.724 24.418 125.219 26.0736 125.49 26.6309C125.933 27.5457 125.941 27.7576 125.568 28.8097C124.715 31.2189 122.204 31.8385 117.972 30.6843C116.834 30.3745 115.795 30.1868 115.663 30.2675C115.53 30.3479 115.433 31.4295 115.446 32.67C115.477 35.4119 115.642 35.5686 119.015 36.0525C124.197 36.7955 128.737 34.8017 130.493 31.0109C131.3 29.2685 131.342 25.9858 130.576 24.4688C130.263 23.8497 128.827 22.3696 127.123 20.9104C123.801 18.0646 123.284 17.1785 123.983 15.5304C124.977 13.1915 127.289 13.0682 130.947 15.1591C132.19 15.8697 133.358 16.4849 133.543 16.5259C133.916 16.6093 135.762 13.7788 135.779 13.0956C135.797 12.3715 134.358 11.2547 131.972 10.1417C129.971 9.20878 129.42 9.07735 127.151 8.9942C124.901 8.91191 124.415 8.98305 123.17 9.57762ZM144.226 9.51008C141.497 10.1426 138.352 12.4421 136.654 15.0463C133.935 19.2155 133.669 25.3504 136.003 30.0706C137.094 32.2768 139.571 34.687 141.804 35.7151C145.287 37.3187 149.816 37.3216 153.294 35.723C154.989 34.9438 157.91 32.5918 157.91 32.006C157.91 31.8513 157.431 31.1562 156.847 30.4621C156.262 29.7677 155.702 29.0808 155.604 28.9357C155.505 28.7902 154.589 29.3013 153.568 30.0709C151.279 31.7973 150.106 32.2134 147.546 32.2075C145.851 32.2038 145.312 32.0738 144.001 31.3535C141.29 29.8642 139.76 26.8704 139.76 23.0551C139.76 17.357 142.862 13.814 147.832 13.8343C150.227 13.8444 151.77 14.456 153.733 16.1727C154.822 17.1252 155.165 17.292 155.49 17.0267C156.11 16.5209 157.626 14.0947 157.626 13.6095C157.626 12.5426 154.216 10.2924 151.529 9.58625C149.952 9.17195 145.868 9.12925 144.226 9.51008ZM165.783 9.74893C161.481 11.1018 157.815 14.973 156.643 19.4005C155.314 24.4197 156.804 29.5909 160.618 33.1939C166.984 39.2074 177.227 37.9302 182.001 30.5277C183.337 28.4567 184 26.0184 184 23.1784C184 19.2827 182.87 16.3373 180.325 13.5975C177.449 10.5011 174.373 9.19676 170.008 9.22217C168.307 9.23191 166.849 9.41383 165.783 9.74893ZM173.753 14.5578C175.405 15.3443 176.978 16.912 177.964 18.7535C178.675 20.081 178.753 20.5053 178.753 23.0177C178.754 25.4143 178.659 25.9848 178.081 27.0633C176.173 30.6281 173.696 32.2287 170.104 32.2188C167.523 32.2119 165.885 31.5615 164.148 29.8531C160.001 25.772 160.549 18.7055 165.28 15.2827C167.623 13.5877 171.093 13.2909 173.753 14.5578ZM45.8579 19.1142C46.8131 21.4941 47.5944 23.5598 47.5944 23.7052C47.5944 24.1536 45.6445 24.358 42.9849 24.1884C41.5869 24.0994 40.3947 23.9789 40.3353 23.9206C40.2761 23.8623 40.8122 22.3169 41.5265 20.4866C42.241 18.6564 43.0172 16.6249 43.2514 15.9729C43.4858 15.3209 43.7772 14.7871 43.8995 14.7871C44.0214 14.7871 44.9029 16.7343 45.8579 19.1142Z" fill="black"/>
</svg>
