<svg width="15" height="14" viewBox="0 0 15 14" fill="none" xmlns="http://www.w3.org/2000/svg">
<path d="M1.5 14H2.25V4.42105H1.5C1.10218 4.42105 0.720644 4.57632 0.43934 4.85268C0.158035 5.12905 0 5.50389 0 5.89474V12.5263C0 12.9172 0.158035 13.292 0.43934 13.5684C0.720644 13.8447 1.10218 14 1.5 14ZM13.5 4.42105H8.25L9.0915 1.93937C9.16659 1.71788 9.18704 1.48204 9.15118 1.25127C9.11532 1.0205 9.02417 0.8014 8.88523 0.612017C8.7463 0.422635 8.56356 0.268389 8.35206 0.161984C8.14056 0.0555795 7.90636 6.05042e-05 7.66875 0H7.5L3.75 4.00695V14H12L14.934 7.66611L15 7.36842V5.89474C15 5.50389 14.842 5.12905 14.5607 4.85268C14.2794 4.57632 13.8978 4.42105 13.5 4.42105Z" fill="black"/>
</svg>
