<svg width="15" height="14" viewBox="0 0 15 14" fill="none" xmlns="http://www.w3.org/2000/svg">
<path d="M13.5 0H12.75V9.57895H13.5C13.8978 9.57895 14.2794 9.42368 14.5607 9.14732C14.842 8.87095 15 8.49611 15 8.10526V1.47368C15 1.08284 14.842 0.708001 14.5607 0.431632C14.2794 0.155263 13.8978 0 13.5 0ZM1.5 9.57895H6.75L5.9085 12.0606C5.83341 12.2821 5.81296 12.518 5.84882 12.7487C5.88468 12.9795 5.97583 13.1986 6.11477 13.388C6.2537 13.5774 6.43644 13.7316 6.64794 13.838C6.85944 13.9444 7.09364 13.9999 7.33125 14H7.5L11.25 9.99305V0H3L0.04725 6.37295L0 6.58884V8.10526C0 8.49611 0.158035 8.87095 0.43934 9.14732C0.720644 9.42368 1.10218 9.57895 1.5 9.57895Z" fill="black"/>
</svg>
