<svg width="14" height="14" viewBox="0 0 14 14" fill="none" xmlns="http://www.w3.org/2000/svg">
<path d="M13.3 1.4H11.2V0.7C11.2 0.514348 11.1263 0.336301 10.995 0.205025C10.8637 0.0737498 10.6857 0 10.5 0H3.5C3.31435 0 3.1363 0.0737498 3.00503 0.205025C2.87375 0.336301 2.8 0.514348 2.8 0.7V1.4H0.7C0.514348 1.4 0.336301 1.47375 0.205025 1.60503C0.0737498 1.7363 0 1.91435 0 2.1V4.2C0 7.217 1.26 9.037 3.374 9.1C3.68245 9.63337 4.10447 10.0923 4.61013 10.4444C5.1158 10.7964 5.69273 11.0329 6.3 11.137V12.6H4.9V14H9.1V12.6H7.7V11.137C8.30727 11.0329 8.8842 10.7964 9.38987 10.4444C9.89553 10.0923 10.3176 9.63337 10.626 9.1C12.726 9.03 14 7.21 14 4.2V2.1C14 1.91435 13.9263 1.7363 13.795 1.60503C13.6637 1.47375 13.4857 1.4 13.3 1.4ZM1.4 4.2V2.8H2.8V7.581C1.554 7.056 1.4 5.11 1.4 4.2ZM11.2 7.581V2.8H12.6V4.2C12.6 5.11 12.446 7.056 11.2 7.581Z" fill="black"/>
</svg>
