<svg width="16" height="15" viewBox="0 0 16 15" fill="none" xmlns="http://www.w3.org/2000/svg">
<path d="M1.6 15H2.4V4.73684H1.6C1.17565 4.73684 0.768687 4.9032 0.468629 5.19931C0.168571 5.49542 0 5.89703 0 6.31579V13.4211C0 13.8398 0.168571 14.2414 0.468629 14.5375C0.768687 14.8336 1.17565 15 1.6 15ZM14.4 4.73684H8.8L9.6976 2.07789C9.77769 1.84059 9.79951 1.5879 9.76126 1.34065C9.72301 1.09339 9.62578 0.858643 9.47758 0.655733C9.32939 0.452823 9.13446 0.28756 8.90887 0.173555C8.68327 0.0595495 8.43346 6.48259e-05 8.18 0H8L4 4.29316V15H12.8L15.9296 8.21368L16 7.89474V6.31579C16 5.89703 15.8314 5.49542 15.5314 5.19931C15.2313 4.9032 14.8243 4.73684 14.4 4.73684V4.73684Z" fill="white"/>
</svg>
