<svg width="34" height="24" viewBox="0 0 34 24" fill="none" xmlns="http://www.w3.org/2000/svg">
<path d="M33.3083 3.77335C33.1148 3.04951 32.7367 2.3894 32.2115 1.85871C31.6864 1.32801 31.0325 0.945248 30.3151 0.748513C27.6547 0.0120024 17.0118 1.30114e-05 17.0118 1.30114e-05C17.0118 1.30114e-05 6.3705 -0.0119771 3.70848 0.69199C2.99146 0.897779 2.33894 1.28596 1.81358 1.81925C1.28822 2.35255 0.907646 3.01306 0.708402 3.73738C0.00679799 6.41965 2.48898e-06 11.9829 2.48898e-06 11.9829C2.48898e-06 11.9829 -0.00679268 17.5735 0.689715 20.2284C1.08044 21.6963 2.22713 22.8558 3.6847 23.2515C6.3722 23.988 16.9863 24 16.9863 24C16.9863 24 27.6293 24.012 30.2896 23.3097C31.0073 23.1133 31.6618 22.7315 32.1882 22.2018C32.7147 21.6722 33.0949 21.0132 33.2914 20.29C33.9947 17.6095 33.9997 12.048 33.9997 12.048C33.9997 12.048 34.0337 6.45562 33.3083 3.77335V3.77335ZM13.6074 17.1367L13.6159 6.85984L22.4615 12.0069L13.6074 17.1367V17.1367Z" fill="black"/>
</svg>
